# xmcd
#
# Track frame offsets: 
#        150
#        17454
#        35223
#        44777
#        58938
#        67537
#        81627
#        96505
#        105686
#        118236
#        128089
#        138511
#
# Disc length: 2108 seconds
#
# Revision: 0
# Processed by: cddbd v1.5.2PL0 Copyright (c) Steve Scherf et al.
# Submitted via: ExactAudioCopy v1.0b6
#
DISCID=b3083a0c
DTITLE=Matthew and Gunnar Nelson - This Christmas (2015)
DYEAR=2015
DGENRE=Christmas
TTITLE0=This Christmas [feat. Alyssa Bonagura]
TTITLE1=Joy To The World
TTITLE2=Santa Claus Is Coming To Town [feat. Molly Cherryholmes]
TTITLE3=Oh Come All Ye Faithful
TTITLE4=Rockin' Around The Christmas Tree
TTITLE5=Mele Kelikimaka [feat. Molly Cherryholmes]
TTITLE6=Away In A Manger
TTITLE7=Holly Jolly Christmas
TTITLE8=Blue Christmas [feat. Molly Cherryholmes]
TTITLE9=Jingle Bells
TTITLE10=We Wish You A Merry Christmas [feat. Molly Cherryholmes]
TTITLE11=White Christmas
EXTD=
EXTT0=
EXTT1=
EXTT2=
EXTT3=
EXTT4=
EXTT5=
EXTT6=
EXTT7=
EXTT8=
EXTT9=
EXTT10=
EXTT11=
PLAYORDER=
